<?xml version="1.0" standalone="no"?>
<!DOCTYPE svg PUBLIC "-//W3C//DTD SVG 20010904//EN"
 "http://www.w3.org/TR/2001/REC-SVG-20010904/DTD/svg10.dtd">
<svg version="1.0" xmlns="http://www.w3.org/2000/svg"
 width="544.000000pt" height="90.000000pt" viewBox="0 0 544.000000 90.000000"
 preserveAspectRatio="xMidYMid meet">
<metadata>
Created by potrace 1.16, written by Peter Selinger 2001-2019
</metadata>
<g transform="translate(0.000000,90.000000) scale(0.100000,-0.100000)"
fill="#000000" stroke="none">
<path d="M220 793 c-6 -21 -14 -56 -19 -78 -9 -39 -9 -39 -10 -8 -1 30 -3 32
-33 30 -18 -1 -36 -6 -40 -12 -11 -15 -10 -69 2 -100 9 -23 8 -26 -5 -21 -19
7 -18 17 -16 -194 2 -151 5 -178 20 -200 26 -36 49 -37 54 -3 3 24 4 23 6 -8
2 -61 13 -99 27 -99 23 0 32 68 44 325 10 246 7 398 -8 403 -6 2 -16 -14 -22
-35z"/>
<path d="M3315 784 c-8 -20 -15 -40 -15 -45 0 -5 -11 -7 -24 -3 -16 4 -25 1
-29 -10 -4 -9 -13 -13 -21 -10 -11 4 -20 -12 -37 -68 -12 -40 -24 -90 -27
-112 -4 -30 -12 -43 -38 -58 -34 -20 -45 -50 -23 -64 15 -9 6 -47 -36 -160
-34 -91 -44 -144 -26 -144 4 0 15 17 24 38 10 21 16 29 15 17 -1 -36 2 -38 21
-21 11 10 36 60 56 111 l37 94 87 -6 c47 -3 91 -9 97 -14 5 -5 16 -38 23 -74
14 -71 26 -86 45 -60 11 15 13 15 28 -2 8 -10 22 -31 29 -48 9 -18 22 -30 34
-30 27 0 33 35 7 42 -18 4 -21 16 -27 81 -3 43 -13 110 -21 150 -9 41 -14 76
-11 78 3 3 14 0 26 -8 15 -9 23 -10 32 -1 14 14 4 32 -25 43 -18 8 -17 9 12 9
55 1 32 25 -29 31 l-54 5 -27 90 c-15 50 -27 105 -27 124 -1 25 -5 32 -16 27
-10 -4 -15 1 -15 14 0 33 -29 22 -45 -16z"/>
<path d="M4070 795 c-19 -14 -42 -25 -51 -25 -10 0 -30 -17 -45 -37 -31 -43
-125 -143 -134 -143 -3 0 -14 15 -24 33 -11 17 -34 51 -53 74 -32 39 -36 42
-83 41 -47 -1 -50 -3 -50 -28 0 -15 7 -34 17 -41 9 -8 40 -66 70 -129 l54
-115 -2 -95 c-2 -52 1 -123 6 -157 8 -64 21 -77 45 -48 7 8 25 15 40 15 15 0
32 6 38 13 5 6 13 64 17 127 l7 115 100 107 c91 97 109 128 75 128 -7 0 -28
-11 -47 -23 -86 -58 -90 -55 -18 13 66 61 77 75 72 96 -4 13 -1 38 6 55 19 44
1 54 -40 24z"/>
<path d="M4475 784 c-8 -20 -15 -40 -15 -45 0 -5 -11 -7 -24 -3 -16 4 -25 1
-29 -10 -4 -9 -13 -13 -21 -10 -11 4 -20 -12 -37 -68 -12 -40 -24 -90 -27
-112 -4 -30 -12 -43 -38 -58 -34 -20 -45 -50 -23 -64 15 -9 6 -47 -36 -160
-34 -91 -44 -144 -26 -144 4 0 15 17 24 38 10 21 16 29 15 17 -1 -36 2 -38 21
-21 11 10 36 60 56 111 l37 94 87 -6 c47 -3 91 -9 97 -14 5 -5 16 -38 23 -74
14 -71 26 -86 45 -60 11 15 13 15 28 -2 8 -10 22 -31 29 -48 9 -18 22 -30 34
-30 27 0 33 35 7 42 -18 4 -21 16 -27 81 -3 43 -13 110 -21 150 -9 41 -14 76
-11 78 3 3 14 0 26 -8 15 -9 23 -10 32 -1 14 14 4 32 -25 43 -18 8 -17 9 12 9
55 1 32 25 -29 31 l-54 5 -27 90 c-15 50 -27 105 -27 124 -1 25 -5 32 -16 27
-10 -4 -15 1 -15 14 0 33 -29 22 -45 -16z"/>
<path d="M2352 797 c-7 -7 -18 -40 -26 -73 -8 -35 -15 -48 -15 -32 -1 23 -5
26 -36 25 -42 -1 -51 -22 -41 -92 6 -34 4 -45 -6 -45 -11 0 -13 -36 -10 -182
4 -194 12 -228 52 -228 14 0 20 7 21 23 1 12 5 -4 9 -36 7 -58 23 -88 37 -73
4 4 11 35 16 69 11 74 25 635 16 648 -3 6 -11 4 -17 -4z"/>
<path d="M1661 773 c-6 -10 -11 -12 -11 -5 0 6 -9 12 -20 12 -17 0 -20 -7 -20
-47 0 -64 19 -143 86 -358 78 -250 72 -238 103 -232 15 3 33 -1 43 -10 15 -13
18 -12 32 15 8 16 26 58 39 93 33 87 80 179 139 271 63 98 115 228 91 228 -15
0 -59 -52 -97 -115 -33 -55 -36 -57 -30 -25 4 19 15 55 25 79 25 58 24 71 -7
71 -23 0 -33 -17 -114 -181 -48 -99 -90 -177 -93 -172 -3 4 -15 44 -27 88 -11
44 -38 130 -59 190 -39 111 -58 135 -80 98z"/>
<path d="M2456 753 c-24 -63 -28 -537 -5 -574 6 -10 11 -10 23 0 9 8 16 20 16
27 0 25 19 14 22 -13 2 -14 8 -28 15 -30 26 -9 35 41 35 186 -1 187 8 213 38
111 75 -257 86 -278 133 -266 28 7 61 -23 78 -72 17 -50 29 -38 31 31 l2 62 3
-52 c3 -37 8 -53 18 -53 15 0 20 24 29 129 3 34 18 120 33 190 20 91 27 148
25 206 -4 124 -27 125 -75 5 l-26 -65 -1 78 c0 60 -3 77 -14 77 -19 0 -22 -12
-41 -170 -8 -74 -18 -153 -21 -175 l-6 -39 -14 34 c-80 213 -101 263 -131 313
-32 53 -63 75 -63 43 0 -7 -9 -16 -21 -19 -16 -4 -23 1 -31 24 -11 32 -42 39
-52 12z"/>
<path d="M4936 728 c-14 -19 -16 -20 -16 -4 0 28 -22 13 -35 -23 -6 -17 -16
-35 -22 -39 -21 -13 -73 -378 -73 -509 0 -45 3 -53 19 -53 24 0 42 22 51 63
l8 32 13 -32 c13 -32 32 -42 43 -25 3 5 8 40 12 78 5 55 12 75 32 96 14 16 30
28 35 28 5 0 60 -50 123 -111 74 -73 119 -109 131 -107 33 6 25 37 -24 89 -39
42 -42 49 -18 34 17 -11 43 -29 58 -42 34 -27 47 -29 47 -7 0 21 -27 58 -122
168 l-79 91 111 105 c95 92 130 140 102 140 -4 0 -39 -26 -77 -57 l-70 -56 53
54 c52 55 64 79 38 79 -19 0 -104 -68 -203 -164 -46 -43 -83 -73 -83 -66 0 7
-7 10 -16 6 -18 -7 -18 0 6 129 20 106 -4 161 -44 103z"/>
<path d="M581 721 c-16 -16 -21 -17 -21 -6 0 8 -4 15 -8 15 -12 0 -42 -34 -42
-47 0 -5 -10 -19 -22 -31 -23 -21 -23 -22 -17 -244 3 -123 9 -231 13 -240 11
-24 23 -22 32 4 6 20 8 19 18 -12 6 -20 18 -35 26 -35 13 0 16 32 20 205 l5
205 22 -60 c12 -33 38 -113 58 -178 23 -73 44 -125 57 -135 11 -9 24 -27 29
-39 12 -33 35 -28 48 9 7 18 23 56 36 83 13 28 44 104 69 170 l45 120 -7 -70
c-11 -110 -9 -198 5 -202 16 -6 30 31 42 110 l9 62 1 -95 c1 -107 15 -170 36
-170 21 0 23 20 30 289 6 219 5 243 -9 238 -10 -4 -16 -1 -16 8 0 28 -30 15
-36 -15 -7 -35 -19 -39 -27 -10 -8 29 -27 24 -27 -7 0 -38 -18 -16 -22 27 -5
52 -28 48 -64 -13 -17 -28 -35 -63 -39 -77 -10 -33 -47 -100 -56 -100 -4 0
-10 17 -14 37 -3 20 -16 61 -27 91 -16 44 -24 53 -39 49 -14 -4 -23 3 -33 21
-8 15 -23 35 -34 45 -20 18 -21 18 -41 -2z"/>
</g>
</svg>
